<?xml version="1.0" encoding="UTF-8" standalone="no"?>
<!DOCTYPE svg PUBLIC "-//W3C//DTD SVG 20010904//EN"
              "http://www.w3.org/TR/2001/REC-SVG-20010904/DTD/svg10.dtd">

<svg xmlns="http://www.w3.org/2000/svg"
     width="3.63889in" height="3.63889in"
     viewBox="0 0 262 262">
  <path id="Selection"
        fill="none" stroke="black" stroke-width="1"
        d="M 123.00,45.00
           C 123.00,45.00 124.48,32.04 124.48,32.04
             124.48,32.04 131.37,23.90 131.37,23.90
             131.37,23.90 138.10,14.04 138.10,14.04
             138.10,14.04 150.00,6.45 150.00,6.45
             150.00,6.45 157.00,2.86 157.00,2.86
             157.00,2.86 167.00,2.86 167.00,2.86
             168.20,6.30 170.85,5.94 174.00,5.77
             179.14,6.08 188.24,4.48 192.00,5.77
             192.00,5.77 198.00,7.87 198.00,7.87
             203.35,9.52 209.32,9.59 213.90,13.42
             219.84,18.38 223.35,36.26 224.00,44.00
             229.76,44.27 238.38,45.42 242.11,50.33
             244.53,53.51 243.44,56.18 247.15,59.78
             251.43,63.94 255.96,62.48 257.57,68.04
             258.82,72.38 256.01,79.37 256.00,86.00
             256.00,86.00 256.00,166.00 256.00,166.00
             255.99,172.53 256.19,176.96 253.19,183.00
             249.98,189.46 243.51,197.90 237.00,201.16
             227.47,205.94 206.75,203.06 196.00,201.72
             190.56,201.04 178.59,197.99 174.00,200.57
             170.82,202.37 164.92,208.22 162.00,210.83
             162.00,210.83 148.32,222.29 148.32,222.29
             143.89,226.90 142.58,231.39 132.00,240.83
             121.42,250.26 105.23,256.83 91.00,257.00
             91.00,257.00 87.00,257.00 87.00,257.00
             62.84,256.96 36.06,240.40 22.44,221.00
             17.29,213.66 14.87,205.94 11.20,198.00
             8.53,192.21 5.89,192.42 3.90,185.00
             0.10,170.83 0.98,150.90 1.00,136.00
             1.00,136.00 2.00,121.00 2.00,121.00
             2.00,121.00 2.00,75.00 2.00,75.00
             2.06,63.05 6.88,63.36 9.14,57.42
             10.36,54.22 7.60,52.00 8.47,48.00
             10.42,39.08 18.78,41.06 25.00,43.00
             29.71,33.35 40.85,34.90 50.00,35.00
             61.43,35.14 61.94,38.49 68.00,39.73
             68.00,39.73 93.00,42.17 93.00,42.17
             93.00,42.17 123.00,45.00 123.00,45.00 Z
           M 164.00,6.00
           C 164.00,6.00 156.00,10.44 156.00,10.44
             156.00,10.44 149.00,13.00 149.00,13.00
             155.66,13.71 160.41,12.06 164.00,6.00 Z
           M 185.00,9.00
           C 176.52,8.92 166.95,5.52 160.00,12.00
             160.00,12.00 163.00,13.00 163.00,13.00
             163.00,13.00 162.00,16.00 162.00,16.00
             162.00,16.00 172.00,12.27 172.00,12.27
             177.71,11.13 179.94,13.66 185.00,9.00 Z
           M 192.00,8.00
           C 185.20,11.90 185.18,13.79 177.00,14.00
             177.00,14.00 177.00,16.00 177.00,16.00
             184.06,15.93 188.53,14.73 192.00,8.00 Z
           M 207.00,16.00
           C 199.08,16.71 192.53,20.75 187.00,20.82
             187.00,20.82 150.00,17.00 150.00,17.00
             144.38,16.94 141.41,15.85 140.00,22.00
             140.00,22.00 170.00,23.43 170.00,23.43
             170.00,23.43 184.91,26.77 184.91,26.77
             184.91,26.77 192.04,22.30 192.04,22.30
             192.04,22.30 207.00,18.00 207.00,18.00
             207.00,18.00 207.00,16.00 207.00,16.00 Z
           M 251.00,68.00
           C 246.72,61.61 238.51,68.08 233.00,69.78
             225.44,72.11 204.00,70.73 197.05,67.35
             192.62,65.19 188.16,54.78 187.16,50.00
             187.16,50.00 187.16,41.00 187.16,41.00
             186.99,37.56 187.24,33.15 185.15,30.22
             181.63,25.32 165.91,24.07 160.00,24.09
             154.97,23.94 141.72,22.11 138.21,24.09
             134.02,26.65 128.17,42.03 127.00,47.00
             150.58,43.89 163.53,43.47 186.00,53.00
             186.00,53.00 189.00,63.00 189.00,63.00
             189.00,63.00 184.00,62.00 184.00,62.00
             186.48,65.94 191.39,67.83 195.00,71.10
             208.16,83.05 203.82,86.98 218.00,87.00
             225.80,87.01 245.81,89.08 247.27,77.99
             247.61,75.45 245.82,70.52 245.00,68.00
             245.00,68.00 251.00,68.00 251.00,68.00 Z
           M 209.00,38.00
           C 220.10,34.68 218.78,21.94 206.00,25.00
             206.00,25.00 209.00,38.00 209.00,38.00 Z
           M 64.00,45.01
           C 63.84,43.06 63.94,41.33 62.40,39.85
             60.89,38.40 57.05,37.60 55.00,37.30
             50.32,36.62 36.96,36.97 33.31,39.85
             31.63,41.18 31.59,42.14 31.00,44.00
             38.01,46.90 38.66,44.87 46.00,45.01
             55.32,45.20 52.46,47.07 64.00,45.01 Z
           M 117.00,47.00
           C 112.34,44.29 95.17,43.39 89.00,42.76
             86.34,42.80 82.40,41.96 80.00,42.76
             77.12,43.25 71.68,47.21 69.00,49.00
             73.17,51.70 80.97,51.68 86.00,52.08
             90.65,52.46 102.22,54.56 106.00,53.49
             109.04,52.63 114.19,48.87 117.00,47.00 Z
           M 196.00,42.00
           C 193.04,43.19 193.08,42.99 192.00,46.00
             194.96,44.81 194.92,45.01 196.00,42.00 Z
           M 28.00,47.00
           C 22.53,43.49 21.18,42.20 15.00,45.00
             15.00,45.00 20.00,52.00 20.00,52.00
             20.00,52.00 14.00,48.00 14.00,48.00
             14.00,48.00 18.00,53.00 18.00,53.00
             18.00,53.00 17.00,57.00 17.00,57.00
             21.31,55.52 23.10,54.65 24.00,50.00
             24.00,50.00 28.00,47.00 28.00,47.00 Z
           M 18.00,45.00
           C 18.00,45.00 23.00,47.00 23.00,47.00
             23.00,47.00 22.00,50.00 22.00,50.00
             22.00,50.00 18.00,45.00 18.00,45.00 Z
           M 183.00,55.00
           C 182.53,53.69 182.64,53.13 181.43,52.08
             179.13,50.08 167.42,47.75 164.00,47.29
             155.10,46.09 145.94,45.36 137.00,46.58
             134.47,46.92 130.35,47.06 128.22,48.31
             128.22,48.31 118.00,61.00 118.00,61.00
             118.00,61.00 130.00,57.00 130.00,57.00
             124.56,49.88 138.28,50.05 142.00,49.70
             147.88,48.83 146.62,49.32 152.00,49.70
             152.00,49.70 167.00,51.45 167.00,51.45
             167.00,51.45 183.00,55.00 183.00,55.00 Z
           M 216.00,46.28
           C 216.00,46.28 209.00,47.17 209.00,47.17
             204.08,47.91 197.66,51.69 205.06,55.35
             209.06,57.33 221.39,58.29 226.00,57.83
             228.69,57.56 241.65,55.67 238.12,50.63
             235.37,46.72 220.57,45.87 216.00,46.28 Z
           M 38.00,61.00
           C 44.96,58.48 44.54,53.62 39.94,52.47
             36.60,51.63 28.80,54.25 26.33,56.53
             24.04,58.64 23.88,63.80 23.00,67.00
             23.00,67.00 31.00,67.00 31.00,67.00
             32.34,70.20 40.00,63.54 42.00,62.00
             42.00,62.00 38.00,61.00 38.00,61.00 Z
           M 73.00,53.00
           C 73.00,53.00 76.00,72.00 76.00,72.00
             76.00,72.00 78.00,72.00 78.00,72.00
             78.00,72.00 77.00,58.00 77.00,58.00
             77.00,58.00 117.00,62.00 117.00,62.00
             114.25,58.05 107.50,58.33 103.00,58.02
             92.97,57.34 82.32,56.92 73.00,53.00 Z
           M 200.00,54.00
           C 194.99,66.63 209.21,67.89 218.00,68.00
             223.95,68.07 236.33,67.92 240.18,62.61
             241.43,60.89 241.58,57.21 242.00,55.00
             242.00,55.00 231.00,58.48 231.00,58.48
             222.17,60.40 207.57,59.15 200.00,54.00 Z
           M 27.00,57.00
           C 27.00,57.00 30.00,63.00 30.00,63.00
             26.66,61.10 26.52,60.80 27.00,57.00 Z
           M 220.00,120.00
           C 219.24,115.09 217.62,110.61 215.80,106.00
             204.31,77.00 176.23,57.64 145.00,58.00
             125.63,58.23 100.77,70.23 95.00,90.00
             95.00,90.00 101.00,86.00 101.00,86.00
             103.83,88.23 110.43,84.85 114.00,84.29
             123.92,82.75 132.41,83.36 142.00,86.52
             167.55,94.94 189.37,121.66 189.99,149.00
             190.20,158.37 187.56,169.48 183.69,178.00
             183.69,178.00 179.00,188.00 179.00,188.00
             192.91,177.05 194.19,158.21 194.00,142.00
             193.65,112.81 162.48,80.35 133.00,80.00
             133.00,80.00 123.00,80.00 123.00,80.00
             115.62,80.09 108.25,82.06 102.00,86.00
             102.00,86.00 113.00,75.68 113.00,75.68
             122.18,68.59 136.47,64.75 148.00,65.01
             183.03,65.81 215.32,101.14 213.96,136.00
             213.42,149.99 207.69,163.76 197.71,173.58
             190.89,180.30 182.64,184.14 177.00,192.00
             199.22,188.85 215.70,168.09 220.00,147.00
             220.00,147.00 215.00,147.00 215.00,147.00
             215.00,147.00 215.88,132.00 215.88,132.00
             215.88,132.00 215.88,123.15 215.88,123.15
             215.88,123.15 220.00,120.00 220.00,120.00 Z
           M 114.00,63.00
           C 114.00,63.00 82.00,61.00 82.00,61.00
             82.71,64.05 84.00,69.10 86.50,71.15
             88.32,72.65 90.76,72.80 93.00,73.13
             101.12,74.31 101.44,74.70 108.00,69.28
             110.74,67.01 112.20,66.13 114.00,63.00 Z
           M 36.00,62.00
           C 36.00,62.00 37.00,62.00 37.00,62.00
             37.00,62.00 36.00,63.00 36.00,63.00
             36.00,63.00 36.00,62.00 36.00,62.00 Z
           M 31.00,65.00
           C 31.00,65.00 32.00,65.00 32.00,65.00
             32.00,65.00 31.00,66.00 31.00,66.00
             31.00,66.00 31.00,65.00 31.00,65.00 Z
           M 252.00,68.00
           C 252.00,68.00 252.00,72.00 252.00,72.00
             252.00,72.00 248.00,69.00 248.00,69.00
             248.00,69.00 250.00,76.00 250.00,76.00
             254.84,73.87 256.03,72.14 252.00,68.00 Z
           M 8.00,70.00
           C 6.99,73.17 7.28,74.11 10.00,76.00
             10.00,76.00 8.00,70.00 8.00,70.00 Z
           M 241.00,69.00
           C 244.52,73.33 245.05,72.97 246.00,79.00
             242.21,75.59 241.78,73.93 241.00,69.00 Z
           M 99.00,76.00
           C 93.45,75.55 79.40,72.80 75.00,75.02
             69.80,77.65 64.82,87.74 57.00,91.00
             48.75,94.43 23.99,93.44 16.02,89.44
             11.92,87.38 11.88,85.23 7.00,82.00
             7.00,82.00 7.00,117.00 7.00,117.00
             7.00,117.00 6.00,132.00 6.00,132.00
             6.00,132.00 6.00,155.00 6.00,155.00
             6.01,160.01 7.43,178.14 9.93,181.78
             11.40,183.91 12.74,184.20 15.00,185.00
             15.00,185.00 13.10,166.00 13.10,166.00
             13.88,148.49 21.45,134.48 35.00,123.47
             44.46,115.78 49.40,115.43 59.00,110.63
             59.00,110.63 74.00,101.05 74.00,101.05
             86.71,93.00 93.16,91.29 99.00,76.00 Z
           M 252.00,73.00
           C 252.00,73.00 253.00,73.00 253.00,73.00
             253.00,73.00 252.00,74.00 252.00,74.00
             252.00,74.00 252.00,73.00 252.00,73.00 Z
           M 8.00,77.00
           C 6.95,80.57 8.08,81.14 11.00,83.00
             11.00,83.00 8.00,77.00 8.00,77.00 Z
           M 47.00,83.00
           C 47.00,83.00 30.00,81.71 30.00,81.71
             30.00,81.71 18.00,80.00 18.00,80.00
             18.07,81.88 17.95,83.95 19.02,85.61
             22.94,91.65 40.77,90.12 47.00,89.00
             47.00,89.00 47.00,83.00 47.00,83.00 Z
           M 254.00,86.00
           C 252.31,85.61 249.42,84.51 247.83,84.80
             246.14,85.10 244.38,86.40 243.00,87.39
             236.54,92.05 233.64,96.88 234.09,105.00
             234.09,105.00 234.82,112.00 234.82,112.00
             234.82,112.00 234.25,120.00 234.25,120.00
             234.78,125.62 236.16,121.94 236.00,136.00
             236.00,136.00 235.00,150.00 235.00,150.00
             235.00,150.00 235.00,182.00 235.00,182.00
             235.00,184.04 234.80,187.98 236.02,189.63
             238.01,192.32 241.07,190.16 243.00,188.65
             247.31,185.29 251.01,181.09 253.00,176.00
             253.00,176.00 250.00,179.00 250.00,179.00
             250.00,179.00 248.00,179.00 248.00,179.00
             248.00,179.00 247.11,174.00 247.11,174.00
             247.11,174.00 248.58,155.00 248.58,155.00
             248.58,155.00 253.00,145.00 253.00,145.00
             253.00,145.00 248.00,149.00 248.00,149.00
             248.00,149.00 248.00,108.00 248.00,108.00
             248.00,108.00 249.00,86.00 249.00,86.00
             250.49,89.50 252.09,88.76 254.00,86.00 Z
           M 121.00,85.00
           C 115.36,86.15 99.89,95.14 97.00,100.00
             102.25,98.47 118.23,89.41 121.00,85.00 Z
           M 133.00,86.00
           C 127.48,87.05 112.92,95.36 110.00,100.00
             116.06,98.56 128.75,90.58 133.00,86.00 Z
           M 142.00,88.00
           C 136.10,89.44 123.94,97.35 120.00,102.00
             125.35,100.69 139.13,92.57 142.00,88.00 Z
           M 102.00,89.00
           C 95.07,90.26 81.23,98.23 76.00,103.00
             83.07,101.89 96.66,93.87 102.00,89.00 Z
           M 149.00,91.00
           C 143.16,93.24 130.84,100.54 128.00,106.00
             133.89,103.37 145.92,96.50 149.00,91.00 Z
           M 156.00,95.00
           C 150.55,96.33 137.83,104.24 135.00,109.00
             140.12,107.74 153.24,99.40 156.00,95.00 Z
           M 161.00,99.00
           C 155.33,101.17 143.76,108.69 141.00,114.00
             146.63,111.61 158.10,104.28 161.00,99.00 Z
           M 147.00,218.00
           C 154.70,213.79 161.35,200.25 163.97,192.00
             175.37,156.14 152.34,117.92 118.00,105.44
             105.83,101.01 92.35,101.02 80.00,104.72
             75.35,106.12 69.72,107.77 67.00,112.00
             67.00,112.00 79.00,110.49 79.00,110.49
             84.70,109.31 90.11,107.43 96.00,107.09
             128.18,105.26 162.73,140.95 160.91,173.00
             160.08,187.53 156.74,190.76 151.93,203.00
             151.93,203.00 147.00,218.00 147.00,218.00 Z
           M 166.00,104.00
           C 160.01,105.91 148.87,113.43 146.00,119.00
             151.30,116.75 163.20,108.87 166.00,104.00 Z
           M 171.00,109.00
           C 165.05,110.47 154.47,118.58 150.00,123.00
             156.12,122.71 167.06,113.73 171.00,109.00 Z
           M 126.00,133.00
           C 105.00,119.52 94.75,112.70 69.00,113.00
             61.34,113.09 51.53,115.48 46.00,121.00
             46.00,121.00 64.00,116.30 64.00,116.30
             77.14,114.42 91.18,116.90 103.00,122.81
             107.24,124.93 112.18,128.08 116.00,130.89
             117.72,132.16 120.72,134.84 122.89,134.82
             124.57,134.81 124.98,133.89 126.00,133.00 Z
           M 175.00,114.00
           C 169.57,115.80 157.76,124.05 155.00,129.00
             160.52,126.89 172.10,119.04 175.00,114.00 Z
           M 116.00,245.00
           C 133.16,238.28 143.79,213.56 144.00,196.00
             144.48,154.09 111.77,117.50 69.00,118.00
             56.70,118.15 33.59,126.73 28.00,138.00
             28.00,138.00 43.00,128.49 43.00,128.49
             52.89,123.21 60.99,121.87 72.00,122.00
             106.93,122.41 139.59,157.44 140.00,192.00
             140.17,206.62 137.74,216.69 129.23,229.00
             124.97,235.16 118.28,240.39 116.00,245.00 Z
           M 178.00,119.00
           C 172.18,122.35 162.03,129.11 159.00,135.00
             164.08,132.83 175.25,124.18 179.00,120.00
             179.00,120.00 178.00,119.00 178.00,119.00 Z
           M 227.00,149.00
           C 229.78,148.16 231.32,147.70 232.83,144.94
             234.95,141.05 234.74,126.58 231.57,123.31
             228.60,120.25 222.97,121.00 219.00,121.00
             219.00,121.00 219.00,123.00 219.00,123.00
             221.98,123.03 226.13,122.86 228.57,124.85
             231.70,127.42 231.74,140.27 230.42,143.91
             229.73,145.80 228.22,147.43 227.00,149.00 Z
           M 182.00,125.00
           C 176.25,127.45 164.96,135.58 162.00,141.00
             167.55,138.83 179.17,130.18 182.00,125.00 Z
           M 229.00,125.00
           C 229.00,125.00 220.00,126.00 220.00,126.00
             220.00,126.00 226.00,129.00 226.00,129.00
             226.00,129.00 227.00,146.00 227.00,146.00
             227.00,146.00 229.00,125.00 229.00,125.00 Z
           M 184.00,131.00
           C 178.73,134.34 166.90,142.25 165.00,148.00
             170.77,144.68 181.98,137.33 184.00,131.00 Z
           M 68.00,133.00
           C 49.67,136.44 37.21,155.06 37.00,173.00
             36.84,186.95 40.95,201.28 50.30,211.99
             66.46,230.48 96.50,236.46 117.00,221.96
             123.85,217.11 129.48,208.99 132.00,201.00
             132.00,201.00 121.83,212.71 121.83,212.71
             113.45,220.80 103.51,224.25 92.00,223.99
             61.69,223.30 36.53,190.33 45.21,161.00
             50.26,143.92 61.30,139.89 68.00,133.00 Z
           M 187.00,138.00
           C 181.04,140.54 170.99,148.87 167.00,154.00
             172.81,152.35 184.24,143.36 187.00,138.00 Z
           M 188.00,146.00
           C 182.24,148.26 171.82,156.52 169.00,162.00
             174.53,159.64 185.14,151.24 188.00,146.00 Z
           M 87.00,151.00
           C 71.39,153.97 62.73,172.52 68.48,187.00
             73.37,199.32 85.09,205.66 98.00,204.11
             103.09,203.50 105.74,202.62 109.96,199.56
             113.82,196.76 116.03,194.33 118.00,190.00
             111.19,194.16 106.43,197.78 98.00,197.24
             86.09,196.48 75.91,185.85 75.10,174.00
             74.34,162.89 80.57,158.38 87.00,151.00 Z
           M 98.00,151.00
           C 86.75,152.77 80.43,159.35 81.04,171.00
             81.61,181.80 93.68,191.13 104.00,186.00
             101.24,184.90 98.47,183.97 96.04,182.20
             88.31,176.57 86.55,167.11 91.48,159.01
             91.48,159.01 98.00,151.00 98.00,151.00 Z
           M 188.00,154.00
           C 188.00,154.00 186.00,154.00 186.00,154.00
             186.00,154.00 170.00,170.00 170.00,170.00
             176.19,167.58 185.15,160.00 188.00,154.00 Z
           M 98.00,156.60
           C 94.82,158.32 92.42,160.16 91.74,164.00
             90.43,171.40 98.01,177.63 104.96,174.76
             114.86,170.67 112.72,153.60 98.00,156.60 Z
           M 187.00,164.00
           C 181.63,166.52 171.86,174.31 170.00,180.00
             175.72,176.37 184.09,170.10 187.00,164.00 Z
           M 182.00,177.00
           C 176.60,180.75 170.86,184.95 168.00,191.00
             173.11,188.58 180.01,182.37 182.00,177.00 Z" />
</svg>
