<?xml version="1.0" encoding="UTF-8" standalone="no"?>
<!DOCTYPE svg PUBLIC "-//W3C//DTD SVG 20010904//EN"
              "http://www.w3.org/TR/2001/REC-SVG-20010904/DTD/svg10.dtd">

<svg xmlns="http://www.w3.org/2000/svg"
     width="100.748mm" height="100.748mm"
     viewBox="0 0 512 512">
  <path id="Selection"
        fill="black" stroke="black" stroke-width="1"
        d="M 50.00,1.17
           C 55.86,0.67 60.16,7.16 64.00,11.00
             64.00,11.00 97.00,44.00 97.00,44.00
             97.00,44.00 215.00,162.00 215.00,162.00
             215.00,162.00 244.00,191.00 244.00,191.00
             246.27,193.27 253.00,200.96 256.00,200.96
             259.00,200.96 265.73,193.27 268.00,191.00
             268.00,191.00 297.00,162.00 297.00,162.00
             297.00,162.00 413.00,46.00 413.00,46.00
             413.00,46.00 448.00,11.00 448.00,11.00
             450.89,8.11 457.57,-0.36 462.00,1.17
             464.59,2.06 471.69,9.69 474.00,12.00
             474.00,12.00 501.00,39.00 501.00,39.00
             503.89,41.89 512.36,48.57 510.83,53.00
             509.90,55.69 500.54,64.46 498.00,67.00
             498.00,67.00 468.00,97.00 468.00,97.00
             468.00,97.00 359.00,206.00 359.00,206.00
             359.00,206.00 323.00,242.00 323.00,242.00
             320.50,244.50 311.04,252.86 311.04,256.00
             311.04,259.00 318.73,265.73 321.00,268.00
             321.00,268.00 350.00,297.00 350.00,297.00
             350.00,297.00 466.00,413.00 466.00,413.00
             466.00,413.00 501.00,448.00 501.00,448.00
             503.89,450.89 512.36,457.57 510.83,462.00
             509.94,464.59 502.31,471.69 500.00,474.00
             500.00,474.00 473.00,501.00 473.00,501.00
             470.11,503.89 463.43,512.36 459.00,510.83
             456.31,509.90 447.54,500.54 445.00,498.00
             445.00,498.00 415.00,468.00 415.00,468.00
             415.00,468.00 306.00,359.00 306.00,359.00
             306.00,359.00 270.00,323.00 270.00,323.00
             267.50,320.50 259.14,311.04 256.00,311.04
             253.00,311.04 246.27,318.73 244.00,321.00
             244.00,321.00 215.00,350.00 215.00,350.00
             215.00,350.00 99.00,466.00 99.00,466.00
             99.00,466.00 64.00,501.00 64.00,501.00
             61.11,503.89 54.43,512.36 50.00,510.83
             47.41,509.94 40.31,502.31 38.00,500.00
             38.00,500.00 11.00,473.00 11.00,473.00
             8.11,470.11 -0.36,463.43 1.17,459.00
             2.10,456.31 11.46,447.54 14.00,445.00
             14.00,445.00 44.00,415.00 44.00,415.00
             44.00,415.00 153.00,306.00 153.00,306.00
             153.00,306.00 189.00,270.00 189.00,270.00
             191.50,267.50 200.96,259.14 200.96,256.00
             200.96,252.90 192.39,245.39 190.00,243.00
             190.00,243.00 155.00,208.00 155.00,208.00
             155.00,208.00 37.00,90.00 37.00,90.00
             37.00,90.00 9.00,62.00 9.00,62.00
             6.34,59.34 -0.27,54.17 1.17,50.00
             2.10,47.31 11.46,38.54 14.00,36.00
             14.00,36.00 36.00,14.00 36.00,14.00
             40.38,9.62 44.71,4.37 50.00,1.17 Z" />
</svg>
