<?xml version="1.0" encoding="UTF-8" standalone="no"?>
<!DOCTYPE svg PUBLIC "-//W3C//DTD SVG 20010904//EN"
              "http://www.w3.org/TR/2001/REC-SVG-20010904/DTD/svg10.dtd">

<svg xmlns="http://www.w3.org/2000/svg"
     width="173.412mm" height="173.412mm"
     viewBox="0 0 1024 1024">
  <path id="Selection"
        fill="#4267B2" stroke="black" stroke-width="1"
        d="M 432.00,1016.00
           C 421.57,1015.77 399.84,1010.46 389.00,1007.88
             352.64,999.25 317.41,985.95 284.00,969.25
             152.01,903.25 55.40,784.73 17.88,642.00
             9.78,611.16 5.09,579.74 2.91,548.00
             2.91,548.00 2.00,536.00 2.00,536.00
             2.00,536.00 2.00,488.00 2.00,488.00
             2.00,488.00 3.83,464.00 3.83,464.00
             7.56,425.50 13.85,392.93 25.66,356.00
             68.28,222.64 167.33,107.93 295.00,49.31
             345.30,26.21 401.78,9.45 457.00,4.17
             483.91,1.59 510.95,1.69 538.00,2.00
             538.00,2.00 560.00,3.83 560.00,3.83
             583.66,6.09 604.76,9.44 628.00,14.58
             715.07,33.81 795.94,78.32 861.00,138.91
             861.00,138.91 878.96,156.00 878.96,156.00
             923.09,202.14 958.86,256.11 983.58,315.00
             1005.87,368.13 1021.33,434.34 1022.00,492.00
             1022.00,492.00 1023.00,507.00 1023.00,507.00
             1023.00,507.00 1022.00,541.00 1022.00,541.00
             1022.00,541.00 1020.17,562.00 1020.17,562.00
             1017.21,592.52 1011.84,622.47 1003.42,652.00
             972.55,760.30 908.14,853.78 818.00,921.37
             792.39,940.58 763.10,958.94 734.00,972.31
             699.40,988.19 669.31,1000.09 632.00,1008.65
             621.05,1011.16 602.74,1015.90 592.00,1016.00
             592.00,1016.00 592.00,660.00 592.00,660.00
             592.00,660.00 711.00,660.00 711.00,660.00
             711.00,660.00 725.58,565.00 725.58,565.00
             725.58,565.00 734.00,512.00 734.00,512.00
             726.14,510.09 696.09,511.00 686.00,511.00
             686.00,511.00 592.00,511.00 592.00,511.00
             592.00,511.00 592.00,441.00 592.00,441.00
             592.00,405.21 591.01,368.17 627.00,347.87
             638.51,341.39 653.87,338.07 667.00,338.00
             667.00,338.00 681.00,337.00 681.00,337.00
             681.00,337.00 740.00,337.00 740.00,337.00
             740.00,337.00 740.00,211.00 740.00,211.00
             740.00,211.00 698.00,205.17 698.00,205.17
             698.00,205.17 655.00,201.96 655.00,201.96
             655.00,201.96 642.00,201.00 642.00,201.00
             642.00,201.00 615.00,201.00 615.00,201.00
             615.00,201.00 603.00,201.91 603.00,201.91
             574.07,204.03 546.57,211.45 521.00,225.31
             510.09,231.22 500.33,238.60 491.00,246.72
             480.65,255.72 470.01,268.28 462.81,280.00
             452.27,297.16 445.47,312.56 440.15,332.00
             431.19,364.75 432.00,388.89 432.00,422.00
             432.00,422.00 432.00,511.00 432.00,511.00
             432.00,511.00 332.00,511.00 332.00,511.00
             332.00,511.00 310.00,511.00 310.00,511.00
             310.00,511.00 303.60,512.60 303.60,512.60
             303.60,512.60 302.00,521.00 302.00,521.00
             302.00,521.00 302.00,627.00 302.00,627.00
             302.00,627.00 302.00,651.00 302.00,651.00
             302.00,651.00 303.60,658.40 303.60,658.40
             303.60,658.40 312.00,660.00 312.00,660.00
             312.00,660.00 432.00,660.00 432.00,660.00
             432.00,660.00 432.00,1016.00 432.00,1016.00 Z" />
</svg>
