<?xml version="1.0" encoding="UTF-8" standalone="no"?>
<!DOCTYPE svg PUBLIC "-//W3C//DTD SVG 20010904//EN"
              "http://www.w3.org/TR/2001/REC-SVG-20010904/DTD/svg10.dtd">

<svg xmlns="http://www.w3.org/2000/svg"
     width="2.8in" height="2.93in"
     viewBox="0 0 840 879">
  <path id="Selection"
        fill="white" stroke="white" stroke-width="1"
        d="M 251.00,40.08
           C 251.00,40.08 307.00,40.08 307.00,40.08
             307.00,40.08 415.00,40.08 415.00,40.08
             415.00,40.08 531.00,40.08 531.00,40.08
             531.00,40.08 581.00,40.08 581.00,40.08
             581.00,40.08 603.00,41.00 603.00,41.00
             603.00,41.00 631.00,44.42 631.00,44.42
             671.35,51.71 708.99,70.87 740.00,97.43
             752.30,107.96 766.56,123.77 776.00,137.00
             788.70,154.81 799.71,175.21 806.67,196.00
             812.64,213.87 818.78,238.17 819.00,257.00
             819.00,257.00 820.00,278.00 820.00,278.00
             820.00,278.00 820.00,602.00 820.00,602.00
             820.00,602.00 819.00,617.00 819.00,617.00
             818.75,638.83 814.57,660.30 807.67,681.00
             784.37,750.89 729.77,804.75 660.00,828.00
             640.08,834.64 619.01,838.76 598.00,839.00
             598.00,839.00 583.00,840.00 583.00,840.00
             583.00,840.00 340.00,840.00 340.00,840.00
             302.11,840.00 244.60,842.01 209.00,835.58
             159.36,826.61 111.46,798.83 78.29,761.00
             51.70,730.68 33.06,693.54 25.00,654.00
             23.48,646.51 21.04,630.37 21.00,623.00
             21.00,623.00 20.00,602.00 20.00,602.00
             20.00,602.00 20.00,574.00 20.00,574.00
             20.00,574.00 20.00,482.00 20.00,482.00
             20.00,482.00 20.00,339.00 20.00,339.00
             20.00,304.42 18.37,262.52 24.42,229.00
             33.43,179.16 61.01,131.60 99.00,98.29
             117.66,81.92 133.83,71.99 156.00,61.26
             174.21,52.44 201.86,44.86 222.00,42.28
             222.00,42.28 236.00,41.00 236.00,41.00
             241.57,40.94 245.34,41.23 251.00,40.08 Z
           M 241.00,101.07
           C 241.00,101.07 224.00,103.27 224.00,103.27
             207.66,105.80 188.77,111.88 174.00,119.27
             122.12,145.21 86.53,198.30 81.92,256.00
             81.92,256.00 81.00,266.00 81.00,266.00
             81.00,266.00 81.00,389.00 81.00,389.00
             81.00,389.00 81.00,612.00 81.00,612.00
             81.07,654.01 101.03,700.64 131.09,729.83
             161.51,759.37 205.25,778.93 248.00,779.00
             248.00,779.00 592.00,779.00 592.00,779.00
             600.93,778.99 614.16,777.18 623.00,775.40
             689.73,761.97 741.98,709.73 755.40,643.00
             757.18,634.16 758.99,620.93 759.00,612.00
             759.00,612.00 759.00,340.00 759.00,340.00
             759.00,313.38 760.66,267.39 756.57,243.00
             752.24,217.23 742.30,193.36 727.28,172.00
             701.64,135.54 660.03,110.07 616.00,103.27
             591.17,99.44 552.34,101.00 526.00,101.07
             526.00,101.07 377.00,101.07 377.00,101.07
             377.00,101.07 288.00,101.07 288.00,101.07
             288.00,101.07 241.00,101.07 241.00,101.07 Z
           M 642.00,164.23
           C 646.00,163.91 649.97,163.96 654.00,164.23
             685.86,164.38 704.49,199.61 692.54,228.00
             686.51,242.32 673.02,251.68 658.00,254.19
             652.33,255.41 647.61,255.14 642.00,254.19
             605.33,246.52 592.05,200.38 620.01,175.18
             626.63,169.22 633.44,166.36 642.00,164.23 Z
           M 407.00,225.42
           C 428.40,222.82 460.20,227.94 481.00,233.86
             504.93,240.67 529.18,253.15 549.00,268.13
             573.62,286.74 593.10,309.05 608.14,336.00
             653.45,417.22 640.33,520.70 575.96,588.00
             559.13,605.60 538.79,620.85 517.00,631.75
             483.17,648.68 450.68,655.44 413.00,655.00
             413.00,655.00 403.00,654.09 403.00,654.09
             387.92,653.03 373.54,650.28 359.00,646.14
             341.04,641.03 323.95,633.02 308.00,623.40
             215.45,567.57 179.38,448.85 224.31,351.00
             248.20,298.97 292.90,256.96 347.00,237.69
             359.79,233.14 375.54,229.09 389.00,227.28
             389.00,227.28 407.00,225.42 407.00,225.42 Z
           M 405.00,286.28
           C 383.19,289.44 371.39,291.63 351.00,301.32
             316.13,317.89 288.27,349.96 275.05,386.00
             266.54,409.22 265.72,425.75 266.00,450.00
             266.12,459.66 268.91,473.64 271.58,483.00
             285.79,532.80 324.90,573.52 375.00,587.86
             385.00,590.72 399.68,593.88 410.00,594.00
             410.00,594.00 428.00,594.00 428.00,594.00
             447.62,593.97 473.65,586.59 491.00,577.52
             510.49,567.32 525.89,555.01 539.92,538.00
             551.05,524.49 560.85,506.65 566.33,490.00
             585.71,431.15 569.14,364.29 522.00,323.29
             505.14,308.62 484.48,297.55 463.00,291.43
             445.72,286.50 422.89,284.62 405.00,286.28 Z" />
</svg>
