<?xml version="1.0" encoding="UTF-8" standalone="no"?>
<!DOCTYPE svg PUBLIC "-//W3C//DTD SVG 20010904//EN"
              "http://www.w3.org/TR/2001/REC-SVG-20010904/DTD/svg10.dtd">

<svg xmlns="http://www.w3.org/2000/svg"
     width="180.6mm" height="180.6mm"
     viewBox="0 0 512 512">
  <path id="Selection"
        fill="black" stroke="black" stroke-width="1"
        d="M 88.00,67.00
           C 89.86,71.47 90.09,73.16 89.98,78.00
             89.35,108.01 45.23,112.20 38.35,83.00
             37.92,80.36 37.86,75.70 38.35,73.00
             39.42,62.76 46.82,53.88 57.00,51.53
             60.56,50.71 71.72,50.98 76.00,51.00
             84.23,51.04 92.34,53.12 100.00,56.06
             106.42,58.53 112.73,62.70 118.00,67.08
             135.39,81.57 140.19,96.66 143.75,118.00
             144.69,123.60 145.87,128.26 146.00,134.00
             146.00,134.00 183.00,137.09 183.00,137.09
             183.00,137.09 232.00,141.09 232.00,141.09
             232.00,141.09 330.00,149.09 330.00,149.09
             330.00,149.09 428.00,157.09 428.00,157.09
             428.00,157.09 463.00,160.00 463.00,160.00
             463.00,160.00 453.87,199.00 453.87,199.00
             453.87,199.00 440.13,256.00 440.13,256.00
             437.27,267.79 430.37,301.26 425.68,310.00
             417.64,324.96 402.60,332.97 386.00,333.00
             386.00,333.00 182.00,333.00 182.00,333.00
             182.00,333.00 186.58,361.00 186.58,361.00
             189.53,377.40 189.48,396.12 209.00,401.70
             213.29,402.93 216.62,402.99 221.00,403.00
             221.00,403.00 429.00,403.00 429.00,403.00
             429.00,403.00 429.00,416.00 429.00,416.00
             429.00,416.00 398.00,416.00 398.00,416.00
             401.49,422.64 404.40,429.24 403.82,437.00
             403.46,441.68 401.89,446.88 399.68,451.00
             384.55,479.20 339.39,469.71 339.00,437.00
             338.90,427.86 339.55,423.63 345.00,416.00
             345.00,416.00 263.00,416.00 263.00,416.00
             268.45,423.63 269.10,427.86 269.00,437.00
             268.94,441.90 268.25,445.57 266.01,450.00
             253.54,474.59 217.70,473.38 206.88,448.00
             205.24,444.16 203.88,438.17 204.18,434.00
             204.74,426.33 206.51,422.64 210.00,416.00
             205.63,415.38 202.04,414.56 198.00,412.68
             177.03,402.92 176.07,383.89 172.75,364.00
             172.75,364.00 166.42,328.00 166.42,328.00
             166.42,328.00 134.08,144.00 134.08,144.00
             129.62,117.24 128.52,91.73 104.00,74.77
             99.17,71.43 93.53,68.93 88.00,67.00 Z
           M 60.00,65.51
           C 45.26,71.88 52.86,92.02 67.00,88.44
             77.25,85.85 78.47,73.23 71.79,67.57
             68.26,64.59 64.26,64.75 60.00,65.51 Z
           M 446.00,173.00
           C 446.00,173.00 423.00,170.83 423.00,170.83
             423.00,170.83 374.00,166.83 374.00,166.83
             374.00,166.83 222.00,154.17 222.00,154.17
             222.00,154.17 149.00,148.00 149.00,148.00
             149.00,148.00 154.75,181.00 154.75,181.00
             154.75,181.00 169.42,265.00 169.42,265.00
             169.42,265.00 179.00,320.00 179.00,320.00
             179.00,320.00 378.00,320.00 378.00,320.00
             391.82,319.98 404.06,317.34 412.17,305.00
             417.06,297.54 421.42,273.83 423.87,264.00
             423.87,264.00 439.12,201.00 439.12,201.00
             439.12,201.00 446.00,173.00 446.00,173.00 Z
           M 215.11,185.75
           C 226.19,183.59 226.19,196.93 218.98,198.53
             211.95,200.09 207.50,190.52 215.11,185.75 Z
           M 253.06,186.03
           C 262.63,183.08 265.94,194.13 258.94,197.82
             252.69,201.12 244.34,192.81 253.06,186.03 Z
           M 292.06,185.75
           C 303.15,183.62 302.93,196.96 295.96,198.53
             288.80,200.14 284.33,190.42 292.06,185.75 Z
           M 330.11,185.75
           C 341.16,183.59 342.48,196.67 333.99,198.53
             326.92,200.07 322.52,190.51 330.11,185.75 Z
           M 369.04,185.75
           C 380.17,183.63 379.92,196.96 372.96,198.53
             366.55,199.97 359.59,191.19 369.04,185.75 Z
           M 214.15,212.02
           C 224.59,208.45 225.86,219.89 221.57,222.83
             215.50,226.98 206.26,219.01 214.15,212.02 Z
           M 253.11,211.74
           C 255.81,211.13 258.22,210.74 260.57,212.74
             264.01,215.66 263.15,221.67 258.89,223.40
             251.45,226.43 244.75,217.03 253.11,211.74 Z
           M 291.15,212.02
           C 301.49,208.48 303.26,219.81 297.85,222.98
             291.06,226.95 283.78,218.55 291.15,212.02 Z
           M 329.23,212.10
           C 331.81,211.10 334.17,210.57 336.72,212.10
             340.52,214.56 340.31,220.73 336.72,222.98
             330.58,226.84 321.30,219.32 329.23,212.10 Z
           M 368.13,211.74
           C 370.78,211.10 373.26,210.60 375.57,212.60
             378.65,215.27 378.82,221.47 373.94,223.40
             366.21,226.46 360.31,216.89 368.13,211.74 Z
           M 216.04,236.66
           C 227.06,236.16 225.29,248.40 218.98,249.64
             211.29,251.16 207.20,240.17 216.04,236.66 Z
           M 254.04,236.78
           C 263.72,235.43 265.20,246.65 258.89,249.26
             251.19,252.45 244.29,242.27 254.04,236.78 Z
           M 293.02,236.66
           C 303.45,236.19 302.70,247.93 295.98,249.55
             288.30,251.40 284.03,240.12 293.02,236.66 Z
           M 331.02,236.78
           C 341.06,235.40 341.98,246.86 334.96,249.39
             328.01,251.89 321.33,242.06 331.02,236.78 Z
           M 369.04,236.78
           C 378.97,235.40 380.20,246.68 373.89,249.26
             367.04,252.06 359.25,242.29 369.04,236.78 Z
           M 215.06,262.74
           C 226.19,260.38 226.25,273.81 218.98,275.34
             211.80,276.84 207.46,267.37 215.06,262.74 Z
           M 253.11,262.74
           C 255.81,262.13 258.22,261.74 260.57,263.74
             264.50,267.08 262.61,273.63 257.96,275.22
             251.70,277.36 244.78,268.01 253.11,262.74 Z
           M 291.15,263.03
           C 294.15,262.04 297.04,261.71 299.40,264.43
             301.86,267.27 301.52,274.15 295.96,275.34
             288.91,276.84 284.92,268.53 291.15,263.03 Z
           M 330.11,262.74
           C 340.77,260.43 342.32,272.71 334.96,275.22
             328.60,277.39 321.65,268.09 330.11,262.74 Z
           M 368.11,263.03
           C 378.42,259.69 380.65,271.37 373.94,274.81
             367.96,277.88 359.56,269.94 368.11,263.03 Z
           M 214.15,289.02
           C 216.82,288.10 219.96,287.44 222.26,289.74
             224.72,292.19 224.85,299.39 218.98,300.67
             212.56,302.06 207.82,294.62 214.15,289.02 Z
           M 252.23,289.02
           C 254.75,288.11 257.25,287.49 259.77,289.02
             263.58,291.34 263.74,297.42 259.77,299.82
             253.30,303.74 244.66,296.00 252.23,289.02 Z
           M 291.23,288.74
           C 293.88,288.08 296.35,287.64 298.69,289.60
             302.08,292.45 301.63,299.44 295.98,300.67
             288.91,302.20 284.94,293.27 291.23,288.74 Z
           M 329.15,289.02
           C 331.69,288.13 334.24,287.47 336.75,289.02
             340.69,291.41 340.38,297.53 336.75,299.83
             330.03,304.03 321.67,295.65 329.15,289.02 Z
           M 367.28,289.02
           C 370.09,287.98 373.13,287.44 375.69,289.60
             378.85,292.27 378.26,297.87 374.77,299.98
             368.58,303.72 359.92,296.13 367.28,289.02 Z
           M 232.00,417.39
           C 208.01,424.60 218.23,457.61 240.00,453.53
             256.63,450.41 260.61,429.12 247.00,419.65
             242.45,416.48 237.25,416.68 232.00,417.39 Z
           M 366.00,417.39
           C 342.93,424.83 352.85,458.49 375.00,453.47
             389.10,450.28 394.88,432.76 384.67,422.21
             379.48,416.84 372.95,416.44 366.00,417.39 Z
           M 235.02,428.78
           C 245.06,427.40 245.98,438.86 238.96,441.39
             232.01,443.89 225.33,434.06 235.02,428.78 Z
           M 369.04,428.78
           C 378.97,427.40 380.20,438.68 373.89,441.26
             367.04,444.06 359.25,434.29 369.04,428.78 Z" />
</svg>
