<?xml version="1.0" encoding="UTF-8" standalone="no"?>
<!DOCTYPE svg PUBLIC "-//W3C//DTD SVG 20010904//EN"
              "http://www.w3.org/TR/2001/REC-SVG-20010904/DTD/svg10.dtd">

<svg xmlns="http://www.w3.org/2000/svg"
     width="5in" height="5in"
     viewBox="0 0 360 360">
  <path id="Selection"
        fill="#FF0000" stroke="black" stroke-width="1"
        d="M 126.72,53.77
           C 126.72,53.77 174.00,53.00 174.00,53.00
             174.00,53.00 223.00,53.00 223.00,53.00
             223.00,53.00 242.00,54.00 242.00,54.00
             242.00,54.00 261.00,54.00 261.00,54.00
             261.00,54.00 273.00,54.96 273.00,54.96
             273.00,54.96 284.00,54.96 284.00,54.96
             284.00,54.96 295.00,55.96 295.00,55.96
             312.10,56.71 329.14,57.44 341.70,71.09
             353.80,84.25 355.19,103.23 357.42,120.00
             357.42,120.00 359.00,143.00 359.00,143.00
             359.00,143.00 360.00,165.00 360.00,165.00
             360.00,165.00 360.00,194.00 360.00,194.00
             360.00,194.00 359.00,212.00 359.00,212.00
             359.00,212.00 358.09,228.00 358.09,228.00
             356.82,246.62 356.22,269.27 344.70,284.99
             333.87,299.75 315.36,303.92 298.00,304.00
             298.00,304.00 281.00,305.00 281.00,305.00
             281.00,305.00 260.00,306.00 260.00,306.00
             260.00,306.00 238.00,306.00 238.00,306.00
             238.00,306.00 219.00,307.00 219.00,307.00
             219.00,307.00 147.00,307.00 147.00,307.00
             147.00,307.00 128.00,306.00 128.00,306.00
             128.00,306.00 103.00,306.00 103.00,306.00
             103.00,306.00 91.00,305.04 91.00,305.04
             91.00,305.04 78.00,305.04 78.00,305.04
             78.00,305.04 68.00,304.09 68.00,304.09
             52.19,303.01 34.91,302.72 22.09,291.98
             7.44,279.71 4.75,259.86 2.84,242.00
             2.84,242.00 1.00,212.00 1.00,212.00
             1.00,212.00 0.00,196.00 0.00,196.00
             0.00,196.00 0.00,164.00 0.00,164.00
             0.00,164.00 0.96,152.00 0.96,152.00
             0.96,152.00 0.96,141.00 0.96,141.00
             0.96,141.00 1.91,131.00 1.91,131.00
             3.29,110.92 4.56,82.76 21.04,68.62
             31.86,59.33 46.01,56.17 60.00,56.00
             60.00,56.00 83.00,55.00 83.00,55.00
             83.00,55.00 98.00,53.77 98.00,53.77
             98.00,53.77 126.72,53.77 126.72,53.77 Z
           M 240.00,175.00
           C 240.00,175.00 212.00,160.78 212.00,160.78
             212.00,160.78 162.00,134.74 162.00,134.74
             162.00,134.74 143.00,125.00 143.00,125.00
             143.00,125.00 142.17,155.00 142.17,155.00
             142.17,155.00 142.17,227.00 142.17,227.00
             148.56,225.44 165.28,215.94 172.00,212.31
             172.00,212.31 216.00,189.42 216.00,189.42
             222.24,185.90 236.61,180.64 240.00,175.00 Z" />
</svg>
